<svg xmlns="http://www.w3.org/2000/svg" width="80.315" height="60.242" viewBox="0 0 80.315 60.242">
  <g id="Group_15" data-name="Group 15" transform="translate(-92 -77)">
    <g id="_367781" data-name="367781" transform="translate(91.95 13)">
      <path id="Path_1" data-name="Path 1" d="M62.763,85.806a20.208,20.208,0,0,0-1.694-7.86,12.935,12.935,0,0,0-2.589-3.64,16.564,16.564,0,0,0-3.342-2.557c-2.683-1.6-5.883-2.667-13.241-4.863A100.449,100.449,0,0,0,30.163,64v56.21L42.7,124.242s.016-31.188.016-46.986v-.6a2.61,2.61,0,0,1,2.526-2.636h.078a2.544,2.544,0,0,1,2.432,2.636V97.572A16.914,16.914,0,0,0,54.307,99a7.5,7.5,0,0,0,3.765-.894,7.7,7.7,0,0,0,2.887-2.792,12.337,12.337,0,0,0,1.553-4.283A25.157,25.157,0,0,0,62.763,85.806ZM13.644,110.091c4.3-1.537,14.009-4.628,14.009-4.628v-7.4s-12,3.891-17.461,5.82c-1.349.486-2.714.926-4.032,1.49a23.179,23.179,0,0,0-4.408,2.322,4.124,4.124,0,0,0-1.443,1.584,2.723,2.723,0,0,0-.078,2.134,4.755,4.755,0,0,0,1.584,1.977A12.619,12.619,0,0,0,5.957,115.3a41.169,41.169,0,0,0,13.868,2.087,56.5,56.5,0,0,0,7.844-.69v-6.589s-1.726.392-6.479,1.961a20.91,20.91,0,0,1-2.2.675,16.452,16.452,0,0,1-3.389.345,9.414,9.414,0,0,1-3.028-.486,1.465,1.465,0,0,1-.863-.722.8.8,0,0,1,.267-.847,4.584,4.584,0,0,1,1.663-.941Z" transform="translate(0)" fill="#fff"/>
      <path id="Path_2" data-name="Path 2" d="M323.141,308.128a3.367,3.367,0,0,0-1.239-2.353,11.822,11.822,0,0,0-3.875-2.118c-.863-.3-1.459-.518-2.306-.784a40.21,40.21,0,0,0-12.284-1.773c-1.255.047-3.624.078-4.863.22a96.132,96.132,0,0,0-10.558,2.416v7.656S298.605,308,303.155,306.4a14.813,14.813,0,0,1,4.753-.722,9.158,9.158,0,0,1,3.043.486,1.487,1.487,0,0,1,.863.706.946.946,0,0,1-.455,1.02,8.885,8.885,0,0,1-2.542,1.161c-6.432,2.275-20.818,7.013-20.818,7.013v7.373s18.386-6.212,26.8-9.225a39.122,39.122,0,0,0,4.142-1.632,11.332,11.332,0,0,0,3.42-2.4A3.1,3.1,0,0,0,323.141,308.128Z" transform="translate(-242.776 -199.904)" fill="#fff"/>
    </g>
  </g>
</svg>
